<?xml version="1.0" encoding="UTF-8" standalone="no"?>
<!-- Created with Inkscape (http://www.inkscape.org/) -->

<svg
   width="210mm"
   height="297mm"
   viewBox="0 0 210 297"
   version="1.1"
   id="svg1"
   sodipodi:docname="trivalent graph.svg"
   inkscape:version="1.4.2 (f4327f4, 2025-05-13)"
   xmlns:inkscape="http://www.inkscape.org/namespaces/inkscape"
   xmlns:sodipodi="http://sodipodi.sourceforge.net/DTD/sodipodi-0.dtd"
   xmlns="http://www.w3.org/2000/svg"
   xmlns:svg="http://www.w3.org/2000/svg">
  <sodipodi:namedview
     id="namedview1"
     pagecolor="#ffffff"
     bordercolor="#000000"
     borderopacity="0.25"
     inkscape:showpageshadow="2"
     inkscape:pageopacity="0.0"
     inkscape:pagecheckerboard="0"
     inkscape:deskcolor="#d1d1d1"
     inkscape:document-units="mm"
     inkscape:zoom="1.0167041"
     inkscape:cx="285.2354"
     inkscape:cy="717.51458"
     inkscape:window-width="1920"
     inkscape:window-height="1009"
     inkscape:window-x="-8"
     inkscape:window-y="-8"
     inkscape:window-maximized="1"
     inkscape:current-layer="layer1" />
  <defs
     id="defs1" />
  <g
     inkscape:label="Layer 1"
     inkscape:groupmode="layer"
     id="layer1">
    <path
       style="fill:none;stroke:#000000;stroke-width:2;stroke-linecap:round;stroke-dasharray:none"
       d="m 98.41895,71.279465 c 0,-48.271605 0,-48.441717 0,-48.441717"
       id="path3"
       inkscape:export-filename="trivalentgraph.pdf"
       inkscape:export-xdpi="96"
       inkscape:export-ydpi="96" />
    <path
       style="fill:none;stroke:#000000;stroke-width:2;stroke-linecap:round;stroke-dasharray:none"
       d="M 56.103691,96.122596 C 97.908134,71.986792 98.055454,71.901736 98.055454,71.901736"
       id="path4" />
    <path
       style="fill:none;stroke:#000000;stroke-width:2;stroke-linecap:round;stroke-dasharray:none"
       d="m 98.782452,72.161973 c 41.804438,24.135805 41.951758,24.22086 41.951758,24.22086"
       id="path5" />
    <path
       style="fill:none;stroke:#000000;stroke-width:2;stroke-linecap:round;stroke-dasharray:none"
       d="m 98.46827,22.923362 c 42.04161,72.995941 42.18976,73.25318 42.18976,73.25318"
       id="path6" />
    <path
       style="fill:none;stroke:#000000;stroke-width:2;stroke-linecap:round;stroke-dasharray:none"
       d="M 98.056513,22.967955 C 55.860976,95.875028 55.712276,96.131949 55.712276,96.131949"
       id="path7" />
    <path
       style="fill:none;stroke:#000000;stroke-width:2;stroke-linecap:round;stroke-dasharray:none"
       d="M 140.24804,96.343623 C 56.010898,96.254753 55.714048,96.254435 55.714048,96.254435"
       id="path8" />
    <path
       style="fill:none;stroke:#000000;stroke-width:2;stroke-linecap:round;stroke-dasharray:none"
       d="m 104.50216,201.58906 c 0,-48.2716 0,-48.44171 0,-48.44171"
       id="path3-8"
       inkscape:export-filename="framedtrivalentgraph.pdf"
       inkscape:export-xdpi="96"
       inkscape:export-ydpi="96" />
    <path
       style="fill:none;stroke:#000000;stroke-width:2;stroke-linecap:round;stroke-dasharray:none"
       d="M 59.579776,231.35371 C 101.38422,207.2179 101.53154,207.13285 101.53154,207.13285"
       id="path4-2" />
    <path
       style="fill:none;stroke:#000000;stroke-width:2;stroke-linecap:round;stroke-dasharray:none"
       d="m 104.75787,201.75783 c 41.80444,24.13581 41.95176,24.22086 41.95176,24.22086"
       id="path5-4" />
    <path
       style="fill:none;stroke:#000000;stroke-width:2;stroke-linecap:round;stroke-dasharray:none"
       d="m 104.83461,153.25718 c 41.67177,72.2371 41.81861,72.49167 41.81861,72.49167"
       id="path6-5" />
    <path
       style="fill:none;stroke:#000000;stroke-width:2;stroke-linecap:round;stroke-dasharray:none"
       d="M 98.323681,153.10405 C 56.374728,225.50522 56.226897,225.76036 56.226897,225.76036"
       id="path7-5" />
    <path
       style="fill:none;stroke:#000000;stroke-width:2;stroke-linecap:round;stroke-dasharray:none"
       d="m 143.83509,231.61621 c -84.237141,-0.0889 -84.533991,-0.0892 -84.533991,-0.0892"
       id="path8-1" />
    <path
       style="fill:none;stroke:#000000;stroke-width:2;stroke-linecap:round;stroke-dasharray:none"
       d="m 101.76515,206.96256 c 41.80444,24.13581 41.95176,24.22086 41.95176,24.22086"
       id="path9" />
    <path
       style="fill:none;stroke:#000000;stroke-width:2;stroke-linecap:round;stroke-dasharray:none"
       d="m 98.256488,201.58906 c 0,-48.2716 0,-48.44171 0,-48.44171"
       id="path10" />
    <path
       style="fill:none;stroke:#000000;stroke-width:2;stroke-linecap:round;stroke-dasharray:none"
       d="M 56.196704,225.88875 C 98.001148,201.75294 98.148468,201.66789 98.148468,201.66789"
       id="path11" />
    <path
       style="fill:none;stroke:#000000;stroke-width:2;stroke-linecap:round;stroke-dasharray:none"
       d="m 101.56114,134.55354 c 60.58568,103.01085 60.79917,103.37388 60.79917,103.37388"
       id="path12" />
    <path
       style="fill:none;stroke:#000000;stroke-width:2.00161;stroke-linecap:round;stroke-dasharray:none"
       d="m 40.12464,237.98009 c 121.94473,0.0225 122.37446,0.0226 122.37446,0.0226"
       id="path13" />
    <path
       style="fill:none;stroke:#000000;stroke-width:2;stroke-linecap:round;stroke-dasharray:none"
       d="M 101.00708,134.664 C 39.778149,237.45473 39.562353,237.81696 39.562353,237.81696"
       id="path14" />
  </g>
</svg>
